<svg xmlns="http://www.w3.org/2000/svg" xmlns:xlink="http://www.w3.org/1999/xlink" xmlns:lucid="lucid" width="1062" height="923"><g transform="translate(1000.5 541.5)" lucid:page-tab-id="0_0"><path d="M-1500-1000H500V500h-2000z" fill="#fff"/><path d="M-897 46.2h25a12 12 0 0 1 12 12v36a12 12 0 0 0 12 12h21.03" stroke="#666" stroke-width="6" fill="none"/><path d="M-896.92 49.18H-900v-5.95h3.08z" stroke="#666" stroke-width=".05" fill="#666"/><path d="M-809.7 106.2l-14.27 4.64v-9.27z" stroke="#666" stroke-width="6" fill="#666"/><path d="M-880-532a8 8 0 0 1 8-8H52a8 8 0 0 1 8 8v904a8 8 0 0 1-8 8h-924a8 8 0 0 1-8-8z" stroke="#242f3e" stroke-width="3" fill="#fff" fill-opacity="0"/><path d="M-880-540h56v56h-56v-56z" stroke="#fff" stroke-opacity="0" fill="#242f3e"/><path d="M-861.78-514.13c-.04.48.04.87.17 1.34.1.4.28.7.48 1.07.04.1.08.22.08.34 0 .2-.12.36-.28.46l-.95.62c-.12.08-.25.13-.37.13-.16 0-.33-.06-.45-.2-.2-.22-.36-.43-.52-.7-.17-.25-.3-.53-.46-.86-1.1 1.37-2.62 2.1-4.4 2.06-1.14.06-2.12-.3-2.95-1.08-.78-.8-1.15-1.76-1.1-2.85-.05-1.23.4-2.28 1.35-3.08 1.07-.86 2.3-1.23 3.65-1.16.58 0 1.03.02 1.6.1.58.1 1.1.2 1.73.33v-1.1c.08-.88-.16-1.67-.7-2.37-.74-.56-1.56-.8-2.46-.7-.53 0-1.03.07-1.6.2-.58.13-1.03.3-1.6.5l-.5.2h-.24c-.2 0-.33-.16-.33-.45v-.75c0-.18.04-.33.12-.5.12-.16.24-.26.4-.33.66-.3 1.2-.5 1.9-.67.77-.2 1.47-.3 2.3-.28 1.47-.13 2.78.26 3.9 1.2.94 1.05 1.35 2.28 1.22 3.67zm-6.07 2.28c.57 0 1.06-.1 1.6-.28.57-.2 1.02-.5 1.43-.96.25-.27.42-.56.5-.93.12-.45.16-.84.16-1.3v-.67c-.53-.1-.94-.17-1.44-.2h-1.4c-.8-.08-1.55.12-2.2.58-.54.45-.8 1.04-.75 1.73-.04.62.13 1.16.54 1.6.44.38.97.52 1.55.45zm12 1.6c-.22 0-.42-.03-.6-.15-.15-.17-.23-.36-.32-.6l-3.5-11.5-.1-.62c0-.24.1-.37.36-.37h1.47c.2 0 .37.04.57.15.17.18.25.37.3.6l2.5 9.96 2.38-9.93c0-.24.08-.44.28-.6.17-.12.37-.16.58-.14h1.2c.24-.02.4.02.6.13.17.2.25.37.3.6l2.33 9.95 2.56-10c.04-.2.16-.4.33-.58.15-.1.36-.17.56-.14h1.4c.16 0 .33.12.37.3v.31s0 .2-.12.35l-3.6 11.53c-.05.22-.13.42-.3.6-.2.1-.37.14-.57.13h-1.27c-.25.04-.46-.02-.62-.15-.16-.17-.25-.36-.3-.6l-2.3-9.6-2.28 9.6c-.05.24-.13.44-.3.6-.2.13-.4.2-.6.16zm19.2.38c-.82 0-1.5-.07-2.3-.25-.65-.13-1.14-.3-1.72-.6-.2-.1-.37-.23-.45-.4-.08-.16-.12-.3-.12-.45v-.75c0-.3.12-.46.32-.46h.3l.36.15c.58.24 1.03.4 1.6.5.62.15 1.15.2 1.8.2.8.06 1.5-.1 2.2-.48.48-.32.77-.83.73-1.42.04-.4-.13-.76-.38-1.04-.46-.4-.95-.65-1.52-.8l-2.18-.68c-.95-.25-1.73-.73-2.38-1.5-.5-.65-.74-1.35-.74-2.18 0-.6.12-1.08.4-1.6.3-.5.63-.9 1.08-1.22.5-.38.98-.6 1.6-.78.66-.18 1.2-.26 1.9-.25.32-.03.6-.03.97 0l1 .16.8.23.67.25c.16.1.28.22.45.38.08.15.12.3.12.5v.7c0 .3-.12.47-.37.47-.2-.03-.37-.1-.57-.18-.95-.42-1.8-.6-2.88-.58-.7-.04-1.3.08-1.97.4-.5.3-.74.8-.7 1.36 0 .4.13.76.46 1.05.5.4.98.65 1.6.82l2.1.67c.94.24 1.68.7 2.3 1.43.48.64.7 1.3.7 2.1 0 .63-.13 1.17-.38 1.73-.3.55-.62.95-1.1 1.32-.5.4-1 .66-1.6.84-.75.23-1.4.33-2.15.34zM-833.9-502.5c-5.6 3.8-11.36 5.56-18.15 5.54-8.54.05-15.82-2.74-22.16-8.45-.5-.42 0-1 .48-.68 7.07 4.05 14.02 5.9 22.2 5.9 6.1-.04 11.3-1.1 16.93-3.47.83-.35 1.52.54.7 1.13z" stroke="#fff" stroke-opacity="0" fill="#fff"/><path d="M-831.84-504.8c-.64-.8-4.16-.38-5.75-.2-.46 0-.53-.36-.1-.67 2.8-1.97 7.42-1.4 8-.73.6.67-.14 5.28-2.78 7.48-.4.35-.78.15-.6-.28.54-1.52 1.86-4.83 1.24-5.6z" stroke="#fff" stroke-opacity="0" fill="#fff"/><use xlink:href="#a" transform="matrix(1,0,0,1,-809,-520) translate(0 16.216875)"/><use xlink:href="#b" transform="matrix(1,0,0,1,-809,-520) translate(42.544775390625006 16.216875)"/><path d="M-960 299.16v-68.08a10 10 0 0 1 10-10 10 10 0 0 0 10-10v-44.1" stroke="#666" stroke-width="6" fill="none"/><path d="M-957.02 302.43l-.93-.24-3.68-.06-1.35.3v-3.35h5.96z" stroke="#666" stroke-width=".05" fill="#666"/><path d="M-940 149.7l4.63 14.27h-9.26z" stroke="#666" stroke-width="6" fill="#666"/><path d="M-977.55 321.78h-20.74c-.95 0-1.7-.76-1.7-1.7v-2.54c0-9.48 6.24-17.44 15.5-19.67.4-.1.8-.04 1.2.17 2.73 1.46 5.68 1.46 8.4 0 .4-.2.8-.26 1.22-.17 2.42.6 4.43 1.46 6.5 2.86l-1.9 2.82c-1.55-1-3-1.68-4.8-2.15-3.45 1.58-7 1.58-10.44 0-7.38 2.06-12.27 8.5-12.27 16.14v.84h19.05z" stroke="#fff" stroke-opacity="0" fill="#232f3e"/><path d="M-979.12 302.46c-6.17 0-11.17-5-11.17-11.14 0-6.16 5-11.15 11.18-11.15 6.16-.07 11.2 4.88 11.26 11 .04 4.27-2.1 7.9-5.86 9.9-1.73.97-3.4 1.4-5.4 1.4zm0-18.9c-4.3 0-7.83 3.45-7.85 7.76 0 2.92 1.48 5.4 4.06 6.8 2.43 1.3 5.12 1.3 7.57 0 2.6-1.4 4.1-3.95 4.06-6.92-.05-4.25-3.57-7.66-7.85-7.62zM-921.68 321.78h-20.75v-3.4h19.04v-.83c0-7.67-4.9-14.1-12.25-16.17-3.45 1.6-7 1.6-10.46 0-1.82.5-3.3 1.2-4.84 2.28l-1.94-2.8c2.07-1.44 4.08-2.35 6.5-2.97.44-.1.86-.06 1.26.16 2.7 1.46 5.7 1.46 8.42 0 .4-.22.8-.27 1.2-.17 9.25 2.22 15.5 10.16 15.5 19.65v2.53c0 .94-.76 1.68-1.68 1.7z" stroke="#fff" stroke-opacity="0" fill="#232f3e"/><path d="M-940.92 302.46c-6.2 0-11.23-5.05-11.23-11.25s5.06-11.2 11.28-11.2c6.2 0 11.23 5.05 11.23 11.25 0 4.23-2.14 7.82-5.85 9.84-1.75.94-3.44 1.36-5.42 1.36zm0-18.9c-4.3 0-7.8 3.45-7.83 7.76-.02 2.92 1.46 5.42 4.05 6.8 2.43 1.3 5.13 1.3 7.6 0 2.62-1.4 4.13-3.97 4.08-6.95-.1-4.27-3.62-7.7-7.9-7.6zM-932.8 360h-54.46c-.92 0-1.67-.75-1.67-1.7v-3.6c-.06-13.1 8.6-24.1 21.32-27.18.46-.13.86-.06 1.27.13 4.04 2.18 8.5 2.18 12.6 0 .34-.2.75-.26 1.2-.13 12.78 3.06 21.45 14.06 21.4 27.18v3.6c0 .95-.76 1.7-1.68 1.7zm-52.72-3.38h50.97v-1.93c0-11.26-7.28-20.74-18.2-23.66-4.8 2.3-9.83 2.3-14.62 0-10.93 2.92-18.15 12.4-18.15 23.65z" stroke="#fff" stroke-opacity="0" fill="#232f3e"/><path d="M-959.98 332.64c-2.7 0-5-.58-7.4-1.86-7.4-4.07-10.13-13.34-6.1-20.77 4.1-7.4 13.38-10.12 20.83-6.08 7.42 4.07 10.15 13.34 6.1 20.77-1.47 2.68-3.4 4.6-6.1 6.08-2.36 1.28-4.66 1.86-7.33 1.86zm0-26.76c-4.44-.06-8.27 2.17-10.42 6.1-3.07 5.64-.98 12.74 4.7 15.83 3.67 1.97 7.72 1.97 11.4 0 3.95-2.13 6.22-5.95 6.16-10.42-.1-6.42-5.4-11.6-11.84-11.5z" stroke="#fff" stroke-opacity="0" fill="#232f3e"/><path d="M-921.22 321.78h-39.72c-.68 0-1.23-.54-1.23-1.23v-2.64c-.04-9.53 6.3-17.56 15.56-19.8.33-.1.63-.06.92.08 2.95 1.6 6.2 1.6 9.2 0 .25-.14.54-.2.88-.1 9.32 2.24 15.64 10.27 15.6 19.83v2.65c0 .7-.55 1.23-1.22 1.23zm-38.46-2.46h37.2v-1.4c0-8.22-5.32-15.13-13.3-17.27-3.5 1.7-7.16 1.7-10.66 0-7.97 2.14-13.24 9.05-13.24 17.26z" stroke="#fff" stroke-opacity="0" stroke-width=".73" fill="#fff" fill-opacity="0"/><path d="M-959.06 321.78h-39.72c-.67 0-1.22-.54-1.22-1.23v-2.64c-.04-9.53 6.28-17.56 15.56-19.8.34-.1.63-.06.93.08 2.94 1.6 6.18 1.6 9.18 0 .25-.14.55-.2.9-.1 9.3 2.24 15.63 10.27 15.6 19.83v2.65c0 .7-.56 1.23-1.24 1.23zm-38.45-2.46h37.18v-1.4c0-8.22-5.3-15.13-13.28-17.27-3.5 1.7-7.17 1.7-10.67 0-7.97 2.14-13.24 9.05-13.24 17.26z" stroke="#fff" stroke-opacity="0" stroke-width=".73" fill="#fff" fill-opacity="0"/><path d="M-934.42.74h-41.7c-1.8 0-3.3 1.48-3.3 3.35v91.8c0 1.87 1.5 3.34 3.3 3.34h72.27c1.8 0 3.23-1.47 3.23-3.34V35.1c0-1.87-1.42-3.35-3.23-3.35h-24.03c-1.82 0-3.23-1.48-3.23-3.35V4.1 4c0-1.78-1.5-3.26-3.32-3.26z" stroke="#000" stroke-opacity="0" fill="#fff"/><path d="M-935.92 5v23.1c0 4.7 3.68 8.4 8.24 8.5h22.72V95h-70.08V5h39.12m1.52-5h-42.24c-1.84 0-3.36 1.5-3.36 3.4v93.2c0 1.9 1.52 3.4 3.36 3.4h73.28c1.84 0 3.36-1.5 3.36-3.4V34.9c0-1.9-1.52-3.4-3.36-3.4h-24.32c-1.84 0-3.36-1.5-3.36-3.4V3.4c0-1.9-1.44-3.4-3.36-3.4z" stroke="#000" stroke-opacity="0" fill="url(#c)"/><path d="M-901.28 32.14L-932.16.74v25.6c-.03 3.2 2.5 5.77 5.62 5.8z" stroke="#000" stroke-opacity="0" fill="#0078d4"/><path d="M-963.94 45.5h47.88c2.17 0 3.26 1.12 3.26 3.35v.75c0 2.23-1.1 3.35-3.26 3.35h-47.88c-2.17 0-3.26-1.12-3.26-3.35v-.75c0-2.23 1.1-3.35 3.26-3.35zM-963.94 58.9h47.88c2.17 0 3.26 1.12 3.26 3.35V63c0 2.23-1.1 3.35-3.26 3.35h-47.88c-2.17 0-3.26-1.12-3.26-3.35v-.75c0-2.23 1.1-3.35 3.26-3.35zM-963.9 72.2h27.73c2.2 0 3.3 1.12 3.3 3.35v.75c0 2.23-1.1 3.35-3.3 3.35h-27.74c-2.2 0-3.3-1.12-3.3-3.35v-.75c0-2.23 1.1-3.35 3.3-3.35z" stroke="#000" stroke-opacity="0" fill="#5ea0ef"/><use xlink:href="#d" transform="matrix(1,0,0,1,-1010,109) translate(56.1249267578125 16.589501953125)"/><path d="M-781.13 40h132.42v132.42h-132.43V40z" stroke="#fff" stroke-opacity="0" stroke-width="2" fill="#3f8624"/><path d="M-672.67 110.7c-.5-2.75-3.64-4.7-5.84-6.1-.68-.45-2.55-1.16-2.72-1.78 0-.44 0-.88.17-1.33l1.78-12.65c.5-3.7 1.02-7.42 1.52-11.22.43-3.36-1.18-5.66-3.97-7.6-5.67-3.98-13.12-5.58-19.8-6.64-8.8-1.42-16.5-1.7-25.38-.8-8.04.53-14.72 2.12-22.17 5.3-3.72 1.77-8.7 4.5-8.03 9.28 1.7 14.32 3.8 28.64 5.75 42.97.85 6.54 1.78 13.08 2.62 19.62.34 2.74 1.86 4.86 4.4 5.92 5.42 2.9 12.2 3.8 18.36 4.33 8.55.8 15.82.53 24.28-1.06 5.1-.9 14.56-2.48 15.4-8.84 1.02-7.87 2.12-15.74 3.14-23.6l.42-2.4c2.88.7 11.1 2.22 10.07-3.44zm-44.84-45.1c10.65 0 22.75 1.24 32.22 6.46 1.53.8 4.9 2.56 3.9 4.77-1.02 2.12-4.23 3.18-6.18 3.98-2.88 1.07-5.5 1.78-8.55 2.4-13.2 2.65-24.88 2.9-38.25.8-6-.63-11-2.13-16.4-4.78-1.28-.8-3.4-2.04-2.8-3.8.42-.98 1.1-1.7 2.03-2.22 4.15-2.65 7.95-4.24 12.78-5.12 7.27-1.77 13.7-2.57 21.23-2.48zm27.74 74.44c-.34 2.03-3.72 3.1-5.33 3.62-3.54 1.24-6.67 1.95-10.4 2.4-8.2 1.05-15.3 1.05-23.6 0-5.16-.45-9.48-1.6-14.13-3.9-1.27-.53-2.03-1.68-2.1-3-1.8-14.06-3.74-28.03-5.68-42l-2.04-15.2c4.23 2.3 8.12 3.7 12.86 4.5 5.16 1.07 9.47 1.6 14.72 1.95 10.15.72 18.87.27 28.93-1.58 5.33-.8 9.73-2.3 14.47-4.86l-3.72 27.67c-9.48-3.1-17.26-6.2-26.14-10.52-.43-.17-.77-.35-1.1-.52-.5-.36-.34-.18-.6-.7-.42-1.07-.5-1.78-1.43-2.66-.85-.62-1.78-.9-2.8-.8-2.2.1-3.9 2.03-3.72 4.25.17 2.12 2.12 3.8 4.32 3.62.6-.1 1.1-.28 1.77-.54.68-.18.68-.18 1.36.18 9.05 4.42 16.92 7.7 26.48 10.87 1.35.45 1.35 0 1.35 1.16-.08.88-.16 1.68-.33 2.56l-1.1 8.4zM-717 98.22c0 .53-.68.45-.85.18-.25-.35.85-.8.85-.18zm34.77 12.38l.5-3.9c1.78 1.07 4.75 2.57 5.6 4.52-1.78.7-4.5-.18-6.1-.62z" stroke="#fff" stroke-opacity="0" stroke-width="2" fill="#fff"/><use xlink:href="#e" transform="matrix(1,0,0,1,-811.1282176585619,181.41649498915297) translate(82.50802951388889 21.52777777777778)"/><path d="M-304.08-123.95h-19.42c-.98 0-1.9-.57-2.28-1.47l-27.2-58.33h-11c-1.35 0-2.52-1.15-2.52-2.54v-16.82c0-1.4 1.17-2.53 2.53-2.53h24.23c1.04 0 1.88.57 2.27 1.47l27.15 58.34h6.24c1.36 0 2.53 1.14 2.53 2.6v16.76c0 1.4-1.17 2.53-2.53 2.53zm-17.86-5.15h15.26v-11.6h-5.26c-.98 0-1.88-.57-2.27-1.47l-27.1-58.42h-20.07v11.7h10c1.04 0 1.95.57 2.34 1.47z" stroke="#fff" stroke-opacity="0" fill="#d86613"/><path d="M-356.78-123.95h-20.75c-1.37 0-2.52-1.16-2.52-2.58 0-.4.07-.7.26-1.05l21.68-45.4c.44-.92 1.3-1.47 2.3-1.47 1 0 1.86.5 2.3 1.4l10.38 21.48c.33.7.33 1.46 0 2.17l-11.34 24c-.45.9-1.3 1.45-2.3 1.45zm-16.66-5.1h15.02l10.22-21.4-7.66-15.57z" stroke="#fff" stroke-opacity="0" fill="#d86613"/><path d="M-340-100c-33.12 0-60-26.88-60-60 0-33.12 26.88-60 60-60 33.12 0 60 26.88 60 60 0 33.12-26.88 60-60 60zm0-114.84c-30.36 0-54.84 24.48-54.84 54.84 0 30.36 24.48 54.84 54.84 54.84 30.36 0 54.84-24.48 54.84-54.84 0-30.36-24.48-54.84-54.84-54.84z" stroke="#fff" stroke-opacity="0" fill="#d86613"/><use xlink:href="#f" transform="matrix(1,0,0,1,-430,-91) translate(47.89930555555556 21.52777777777778)"/><use xlink:href="#g" transform="matrix(1,0,0,1,-430,-91) translate(44.779730902777786 48.415798611111114)"/><path d="M-714.92 37v-185a12 12 0 0 1 12-12h255.95" stroke="#666" stroke-width="6" fill="none"/><path d="M-711.95 40h-5.94v-3.08h5.95z" stroke="#666" stroke-width=".05" fill="#666"/><path d="M-429.7-160l-14.27 4.63v-9.26z" stroke="#666" stroke-width="6" fill="#666"/><path d="M-925 15c0 19.32-15.68 35-35 35s-35-15.68-35-35 15.68-35 35-35 35 15.68 35 35z" stroke="#000" stroke-opacity="0" fill="#54698d"/><path d="M-941.1 19.2h-2.53c-.64 0-1.25.67-1.25 1.26v8.4c0 .67-.6 1.26-1.25 1.26h-27.74c-.64 0-1.25-.6-1.25-1.26v-8.4c0-.6-.6-1.26-1.25-1.26h-2.54c-.65 0-1.26.67-1.26 1.26V31.8c0 1.84 1.5 3.36 3.35 3.36h33.6c1.87 0 3.36-1.52 3.36-3.37V20.45c0-.6-.6-1.26-1.25-1.26z" stroke="#000" stroke-opacity="0" fill="#fff"/><path d="M-959.2-4.84c-.5-.5-1.25-.5-1.75 0L-972.3 6.48c-.5.5-.5 1.26 0 1.75l1.77 1.78c.5.52 1.26.52 1.77 0l4.7-4.7c.5-.5 1.52-.15 1.52.6v17.77c0 .7.5 1.27 1.16 1.27h2.52c.68 0 1.36-.66 1.36-1.27V5.97c0-.76.83-1.1 1.4-.58l4.72 4.7c.5.48 1.26.48 1.77 0l1.75-1.78c.5-.5.5-1.24 0-1.75l-11.34-11.4z" stroke="#000" stroke-opacity="0" fill="#fff"/><path d="M-277-160h24.5a12 12 0 0 1 12 12v248.42a12 12 0 0 1-12 12h-41.65" stroke="#666" stroke-width="6" fill="none"/><path d="M-276.92-157.03h-3.2l.12-2.97-.1-2.97h3.18z" stroke="#666" stroke-width=".05" fill="#666"/><path d="M-311.42 112.42l14.27-4.64v9.27z" stroke="#666" stroke-width="6" fill="#666"/><path d="M-375.55 63.16h-41.7c-1.8 0-3.3 1.48-3.3 3.35v91.8c0 1.88 1.5 3.36 3.3 3.36h72.27c1.82 0 3.23-1.48 3.23-3.35V97.55c0-1.88-1.4-3.35-3.23-3.35H-369c-1.82 0-3.24-1.5-3.24-3.36V66.5v-.1c0-1.76-1.5-3.24-3.3-3.24z" stroke="#000" stroke-opacity="0" fill="#fff"/><path d="M-377.05 67.42v23.1c0 4.7 3.68 8.4 8.24 8.5h22.7v58.4h-70.07v-90h39.12m1.52-5h-42.24c-1.84 0-3.36 1.5-3.36 3.4v93.2c0 1.9 1.52 3.4 3.36 3.4h73.28c1.85 0 3.37-1.5 3.37-3.4v-61.7c0-1.9-1.52-3.4-3.36-3.4h-24.3c-1.85 0-3.37-1.5-3.37-3.4v-24.7c0-1.9-1.44-3.4-3.36-3.4z" stroke="#000" stroke-opacity="0" fill="url(#h)"/><path d="M-342.4 94.56l-30.9-31.4v25.6c-.02 3.2 2.5 5.77 5.63 5.8z" stroke="#000" stroke-opacity="0" fill="#0078d4"/><path d="M-405.06 107.92h47.87c2.18 0 3.27 1.1 3.27 3.35v.74c0 2.25-1.1 3.37-3.26 3.37h-47.86c-2.18 0-3.27-1.12-3.27-3.36v-.73c0-2.24 1.1-3.35 3.27-3.35zM-405.06 121.32h47.87c2.18 0 3.27 1.1 3.27 3.35v.74c0 2.25-1.1 3.37-3.26 3.37h-47.86c-2.18 0-3.27-1.12-3.27-3.36v-.73c0-2.24 1.1-3.35 3.27-3.35zM-405.03 134.62h27.73c2.2 0 3.3 1.1 3.3 3.35v.74c0 2.25-1.1 3.37-3.3 3.37h-27.73c-2.2 0-3.3-1.12-3.3-3.36v-.73c0-2.24 1.1-3.35 3.3-3.35z" stroke="#000" stroke-opacity="0" fill="#5ea0ef"/><use xlink:href="#i" transform="matrix(1,0,0,1,-451.1282176585619,171.41649498915297) translate(24.369604492187484 16.589501953125)"/><path d="M-424.13 112.42h-168.9" stroke="#666" stroke-width="6" fill="none"/><path d="M-421.13 115.4h-3.07v-5.96h3.07z" stroke="#666" stroke-width=".05" fill="#666"/><path d="M-610.3 112.42l14.27-4.64v9.27z" stroke="#666" stroke-width="6" fill="#666"/><path d="M-282.88-426.25c-.48-.6-.84-1.22-1.2-1.83-2.04-3.88-3.12-7.45-3.84-11.73-3-14.2-10.92-25.1-23.4-32.45-8.76-5.3-17.64-8.77-28.08-7.44-13.92 1.74-25.68 6.94-33.84 18.98-4.68 7.14-7.92 13.67-10.68 21.83-2.52 7.04-2.28 14.7-5.4 21.53-.72 1.43-1.44 2.55-2.28 3.87-2.16 3.37-5.04 6.43-6.6 10-3.84 8.87-1.68 13.97 6.84 18.36.96.4 1.8.82 2.76 1.22 9.96 3.98 33.36 8.98 47.76 3.47 3.6-1.12 6.48-2.34 9.72-4.18 11.52-6.12 23.04-12.44 34.56-18.67 5.4-2.75 9.72-5.9 13.8-10.5 3.72-4.3 3.6-8.26-.12-12.45z" fill="#4b612c"/><path d="M-323.55-474.75c6.4 2.3 11.53 5.26 16.76 9.84 3.64 2.86 13.46 13 15.7 25.6.22 1.9.43 3.82.75 5.63.32.87.75 1.53 1.3 2.2l1.16 2.97s2.14 3.43 3.32 5.06c1.5 2.1 2.03 4.2.43 6.3-3.74 4.78-8.55 8.13-14.42 11.18l.54-6.2-3.85-1.15c-1.5 3.33-.53 5.8 3.1 7.63-3.42 1.8-6.52 3.44-9.5 4.97-9.3 4.97-18.48 10.03-27.77 14.9-7.15 3.73-14.1 5.26-22.1 5.07-9.3-.4-17.2-1.9-25.95-4.97-3.73-1.44-6.83-7.36-5.65-11.1.53-1.8 2.45-2.95 4.27-2.56 6.5.66 13.02 1.43 19.54 2.2 7.15.85 14.4 2.48 21.56 2.48 8.23 0 16.02-2.5 23.7-5.64-2.34.2-4.7.3-6.93.48-6.52.47-12.93.67-19.34 1.53-8 1.04-15.48-.68-23.06-2.6-6.2-1.33-11.1-4.68-14.63-9.93-1.4-2.1-2.24-4.4-1.17-6.6.85.77 1.8 2.2 2.45 2.1.75-.1 2.03-1.33 2.46-2.38.97-2.6 1.6-5.26 2.36-7.94 1.17-5.06 2.45-9.36 4.16-14.33 3.3-8.4 6.94-16.82 12.6-24.08 2.14-2.86 4.16-5.16 6.94-7.55 3.3-2.96 7.7-3.9 12.07-4.4 5-.47 10.14-.18 15.37-.28.22 0 .54.3.86.38z" fill="#759c3e"/><path d="M-291.08-439.28c-1.06-2.36-2.07-4.26-3.38-6.48-1.2-1.66-2.46-2.9-4.16-4.07-7.54-5.23-17.87-3.33-23.08 4.16-4.28 5.97-6.23 12.77-7.37 19.85-.34 2.13-.6 4.26-.98 7-2.24-3.85-3.26-7.64-3.3-12.1-.42-8.55.8-16.83 6.18-23.95 3.82-5.1 8.35-9.26 15-10.18 1.86-.1 3.47-.05 5.34.18 2.03 1.76 4.44 3.2 6 5.28 4.42 5.42 7.25 10.8 9.33 17.45.2.97.34 1.85.42 2.87z" fill="#b7ca9d"/><path d="M-323.58-474.74c-7.4 2.04-11.67 7.5-15.18 13.8-5.05 9-8.75 18.54-8.54 29.02.03 6.35 1.18 11.7 3.75 17.47.27.57.44 1.2.8 2.16-2.72.13-5.08-1.07-6.56-3.36-2.8-4.06-4.02-8.32-3.8-13.28.3-13.53 2.94-26.55 11.83-37.48 2.03-2.4 3.92-4.38 6.35-6.48 2.4-2.16 5.2-3.1 8.38-2.92z" fill="#b7ca9d"/><path d="M-287.9-428.5c0 3.35-2.32 5.13-4.53 6.9-11.27 9-24.38 13.72-38.33 16.3-6.2 1.14-12.47 2.16-18.75 2.92-7.58.9-14.7-1.75-21.9-3.63-2.95-.76-5.8-1.7-8.86-2.58 0-.32 0-.6.1-.93 1.38-.13 2.58-.13 3.96 0 5.82.98 11.55 2.47 17.37 3.06 5.63.58 10.52.58 16.16 0 10.53-1.08 19.4-3.13 29.37-6.87 5.8-2.32 10.52-4.63 15.88-7.73 4.06-2.28 7.85-5.15 8.3-10.4zM-301.86-413.3c2.8-1.65 5.5-3.46 8.4-4.94 1.32-.4 2.5-.57 3.88-.52l.28.68-8.73 5.9z" fill="#b7ca9d"/><use xlink:href="#j" transform="matrix(1,0,0,1,-400,-378) translate(-4.995659722222214 21.52777777777778)"/><path d="M-19.44-492.57c3.57 0 6.44 2.87 6.44 6.42v101.72c0 3.55-2.87 6.42-6.44 6.42h-74.12c-3.57 0-6.44-2.88-6.44-6.43v-101.83c0-3.56 2.87-6.42 6.44-6.42h74.12z" fill="#7d7c7c"/><path d="M-19.44-497.9c3.57 0 6.44 2.88 6.44 6.44v101.7c0 3.56-2.87 6.43-6.44 6.43h-74.12c-3.57 0-6.44-2.87-6.44-6.42v-101.83c0-3.55 2.87-6.42 6.44-6.42h74.12z" fill="#d2d3d3"/><path d="M-81.27-473.08l-5.98-6.5-6.58 6.6 12.42 12.5 20.97-21.1-4.78-4.88-16.07 13.38zM-81.27-443.13l-5.98-6.53-6.58 6.63 12.42 12.48 20.97-21.1-4.78-4.9-16.07 13.42z" fill="#759c3e"/><path d="M-80.6-413.2l-12.8-11.6h6.26l9.72 9.33 10.2-9.32h5.78l-12.8 11.6 13.47 12.24h-6.42l-10.48-9.84-10.83 9.84h-5.7z" fill="#e05243"/><use xlink:href="#k" transform="matrix(1,0,0,1,-100,-378) translate(22.813151041666668 21.52777777777778)"/><use xlink:href="#l" transform="matrix(1,0,0,1,-100,-378) translate(12.043836805555557 48.415798611111114)"/><path d="M-337-337c0 1.66-1.34 3-3 3s-3-1.34-3-3 1.34-3 3-3 3 1.34 3 3zm0 11.75c0 1.66-1.34 3-3 3s-3-1.34-3-3 1.34-3 3-3 3 1.34 3 3zm0 11.75c0 1.66-1.34 3-3 3s-3-1.34-3-3 1.34-3 3-3 3 1.34 3 3zm0 11.75c0 1.66-1.34 3-3 3s-3-1.34-3-3 1.34-3 3-3 3 1.34 3 3zm0 11.75c0 1.66-1.34 3-3 3s-3-1.34-3-3 1.34-3 3-3 3 1.34 3 3zm0 11.75c0 1.66-1.34 3-3 3s-3-1.34-3-3 1.34-3 3-3 3 1.34 3 3zm0 11.75c0 1.66-1.34 3-3 3s-3-1.34-3-3 1.34-3 3-3 3 1.34 3 3zm0 11.75c0 1.66-1.34 3-3 3s-3-1.34-3-3 1.34-3 3-3 3 1.34 3 3z" fill="#1071e5"/><path d="M-340-336.92V-340M-340-243.08v3.08" stroke="#1071e5" stroke-width="6" fill="none"/><path d="M-100-428c0 1.66-1.34 3-3 3s-3-1.34-3-3 1.34-3 3-3 3 1.34 3 3zm-11.85 0c0 1.66-1.34 3-3 3-1.65 0-3-1.34-3-3s1.35-3 3-3c1.66 0 3 1.34 3 3zm-11.84 0c0 1.66-1.33 3-3 3-1.65 0-3-1.34-3-3s1.35-3 3-3c1.67 0 3 1.34 3 3zm-11.84 0c0 1.66-1.34 3-3 3s-3-1.34-3-3 1.34-3 3-3 3 1.34 3 3zm-11.84 0c0 1.66-1.35 3-3 3-1.66 0-3-1.34-3-3s1.34-3 3-3c1.65 0 3 1.34 3 3zm-11.85 0c0 1.66-1.34 3-3 3s-3-1.34-3-3 1.34-3 3-3 3 1.34 3 3zm-11.85 0c0 1.66-1.34 3-3 3-1.65 0-3-1.34-3-3s1.35-3 3-3c1.66 0 3 1.34 3 3zm-11.84 0c0 1.66-1.35 3-3 3-1.66 0-3-1.34-3-3s1.34-3 3-3c1.65 0 3 1.34 3 3zm-11.85 0c0 1.66-1.34 3-3 3s-3-1.34-3-3 1.34-3 3-3 3 1.34 3 3zm-11.84 0c-.02 1.66-1.36 3-3.02 3-1.65 0-3-1.34-3-3s1.35-3 3-3c1.66 0 3 1.34 3 3zm-11.86 0c0 1.66-1.34 3-3 3s-3-1.34-3-3 1.34-3 3-3 3 1.34 3 3zm-11.85 0c0 1.66-1.35 3-3 3-1.66 0-3-1.34-3-3s1.34-3 3-3c1.65 0 3 1.34 3 3zm-11.85 0c0 1.66-1.35 3-3 3-1.66 0-3-1.34-3-3s1.34-3 3-3c1.65 0 3 1.34 3 3zm-11.85 0c0 1.66-1.34 3-3 3s-3-1.34-3-3 1.34-3 3-3 3 1.34 3 3z" fill="#1071e5"/><path d="M-100-425.02h-3.08v-5.96h3.08z" stroke="#1071e5" stroke-width=".05" fill="#1071e5"/><path d="M-256.92-428H-260" stroke="#1071e5" stroke-width="6" fill="none"/><path d="M-288.35-195.03h121.38" stroke="#666" stroke-width="6" fill="none"/><path d="M-288.27-192.05h-1.03l-.17-.3-2.9-4.1-1.27-1.55h5.37z" stroke="#666" stroke-width=".05" fill="#666"/><path d="M-149.7-195.03l-14.27 4.64v-9.26z" stroke="#666" stroke-width="6" fill="#666"/><path d="M1.23-156.94c-1.55 1.8-3.83 2.78-6.1 2.78-2.05 0-4.1-.72-5.65-2.15l-14.14-12.82c-5.04 3.23-10.9 5.1-17.26 5.1-13.9 0-25.66-9.13-29.73-21.66h5.87c3.72 9.5 13.07 16.3 23.86 16.3 14.26 0 25.77-11.56 25.77-25.8 0-14.23-11.5-25.8-25.77-25.8-11.87 0-21.82 8.07-24.82 19h-5.63c3.1-13.97 15.58-24.36 30.45-24.36 17.26 0 31.16 13.97 31.16 31.16 0 4.84-1.07 9.4-3 13.44l14.4 13.07c3.47 3.05 3.7 8.33.6 11.73zm-43.15-58.56c11.27 0 20.38 9.13 20.38 20.32 0 11.2-9.12 20.33-20.38 20.33-7.8 0-14.5-4.4-17.98-10.83h6.47c2.76 3.3 6.95 5.46 11.5 5.46 8.28 0 15-6.72 15-14.96 0-8.23-6.72-14.95-15-14.95-5.75 0-10.78 3.3-13.18 8.15h-6c2.87-7.88 10.43-13.52 19.18-13.52zm-74.57 24.35v-5.37h73.26v5.37zm0-43.34v-5.45h56.95v5.46zm0 84.1v-5.46h51.56v5.46zm0-62.42v-5.46h35.26v5.46zm0 40.75v-5.46h35.26v5.46zm113.54 7.43L-16.63-177c-1.08 1.62-2.4 3.05-3.84 4.4l13.55 12.26c1.2 1.07 3.12 1 4.2-.27.96-1.17.96-2.96-.24-4.04z" stroke="#000" stroke-opacity="0" fill="#b0084d"/><path d="M-116.38-239.94l56.64-.1.24 5.4 16.8 8.3c12-.46 18.84 5.4 25.32 11.7 2.64 4.76 5.88 9.08 6.6 15.3.24 5.84.36 11.78-3 17.63l15.72 14.3c1.56 3.7 2.88 7.38-.84 10.8-3.72 3.42-7.08 2.7-10.32 1.35L-24.7-169.3c-4.8 3.52-10.2 5.23-15.96 5.23-4.44.36-8.04-.27-11.04-1.7l-13.32 9.8.12 5.94-51.6-.36z" stroke="#000" stroke-opacity="0" fill-opacity="0"/><g><use xlink:href="#m" transform="matrix(1,0,0,1,-146.5,-141.02805826982114) translate(26.089409722222214 21.52777777777778)"/><use xlink:href="#n" transform="matrix(1,0,0,1,-146.5,-141.02805826982114) translate(64.37608506944444 48.415798611111114)"/></g><defs><path d="M52 0l541-1490h220L1361 0h-200l-149-416H398L254 0H52zm404-582h497c-103-290-145-390-251-756-108 377-145 460-246 756" id="o"/><path d="M458 0L52-1490h194c108 439 233 855 324 1313 92-459 221-873 331-1313h216c110 438 234 854 330 1307 92-455 216-869 323-1307h196L1558 0h-221l-256-944c-26-95-50-200-73-331-22 122-44 223-73 331L680 0H458" id="p"/><path d="M657 26c-323 0-524-166-541-416h195c15 169 171 246 346 246 202 0 356-106 356-265 5-203-294-238-475-293-239-73-380-191-380-389 0-252 224-419 512-419 294 0 499 171 508 396H992c-17-145-151-228-328-228-193 0-321 102-321 242 0 156 175 211 284 241l149 41c160 44 422 134 422 412 0 244-197 432-541 432" id="q"/><g id="a"><use transform="matrix(0.008173828125000001,0,0,0.008173828125000001,0,0)" xlink:href="#o"/><use transform="matrix(0.008173828125000001,0,0,0.008173828125000001,10.601455078125001,0)" xlink:href="#p"/><use transform="matrix(0.008173828125000001,0,0,0.008173828125000001,27.096240234375003,0)" xlink:href="#q"/></g><path d="M783 20c-382 0-661-292-661-764 0-473 279-766 661-766 302 0 548 182 601 489h-190c-42-204-217-313-411-313-268 0-476 208-476 590 0 381 209 588 476 588 195 0 369-110 411-313h190c-52 303-296 489-601 489" id="r"/><path d="M338-1490V0H158v-1490h180" id="s"/><path d="M613 24c-304 0-509-231-509-576 0-350 205-580 509-580 305 0 511 230 511 580 0 345-206 576-511 576zm0-161c226 0 329-195 329-415 0-222-103-419-329-419-223 0-326 196-326 419 0 220 103 415 326 415" id="t"/><path d="M537 14c-226 0-379-139-379-422v-710h180v695c0 172 97 275 253 275 160 0 281-109 281-300v-670h181V0H879v-209C806-46 684 14 537 14" id="u"/><path d="M577 24c-279 0-473-224-473-580 0-354 195-576 474-576 218 0 287 134 324 193h14v-551h180V0H922v-173h-20C865-111 790 24 577 24zm27-161c203 0 314-172 314-421 0-247-108-413-314-413-212 0-317 181-317 413 0 235 108 421 317 421" id="v"/><g id="b"><use transform="matrix(0.008173828125000001,0,0,0.008173828125000001,0,0)" xlink:href="#r"/><use transform="matrix(0.008173828125000001,0,0,0.008173828125000001,12.228046875000002,0)" xlink:href="#s"/><use transform="matrix(0.008173828125000001,0,0,0.008173828125000001,16.282265625,0)" xlink:href="#t"/><use transform="matrix(0.008173828125000001,0,0,0.008173828125000001,26.3197265625,0)" xlink:href="#u"/><use transform="matrix(0.008173828125000001,0,0,0.008173828125000001,36.218232421875,0)" xlink:href="#v"/></g><linearGradient gradientUnits="userSpaceOnUse" id="c" x1="-940" y1="100" x2="-940"><stop offset="0%" stop-color="#0078d4"/><stop offset="81.7%" stop-color="#5ea0ef"/></linearGradient><path d="M180 0v-1490h901v168H370v510h643v168H370V0H180" id="w"/><path d="M158 0v-1118h180V0H158zm91-1301c-68 0-125-53-125-119s57-119 125-119c69 0 126 53 126 119s-57 119-126 119" id="x"/><path d="M628 24c-324 0-524-230-524-574 0-343 198-582 503-582 237 0 487 146 487 559v75H286c9 234 145 362 343 362 132 0 231-58 273-172l174 48C1024-91 857 24 628 24zM287-650h624c-17-190-120-322-304-322-192 0-309 151-320 322" id="y"/><g id="d"><use transform="matrix(0.008173828125000001,0,0,0.008173828125000001,0,0)" xlink:href="#w"/><use transform="matrix(0.008173828125000001,0,0,0.008173828125000001,9.882158203125002,0)" xlink:href="#x"/><use transform="matrix(0.008173828125000001,0,0,0.008173828125000001,13.936376953125002,0)" xlink:href="#s"/><use transform="matrix(0.008173828125000001,0,0,0.008173828125000001,17.990595703125003,0)" xlink:href="#y"/></g><path d="M635 20c-292 0-500-160-510-396h192c11 142 145 229 315 229 187 0 323-105 323-260 0-161-125-274-346-274H488v-165h121c174 0 294-100 294-254 0-148-104-245-266-245-152 0-291 85-297 230H157c8-234 222-395 484-395 278 0 448 188 448 400 0 168-95 291-247 336v12c190 31 301 169 301 357 0 244-216 425-508 425" id="z"/><g id="e"><use transform="matrix(0.010850694444444444,0,0,0.010850694444444444,0,0)" xlink:href="#q"/><use transform="matrix(0.010850694444444444,0,0,0.010850694444444444,14.2578125,0)" xlink:href="#z"/></g><path d="M180 0v-1490h190v1322h690V0H180" id="A"/><path d="M471 26C259 26 90-98 90-318c0-256 228-303 435-329 202-27 287-16 287-108 0-139-79-219-234-219-161 0-248 86-283 164l-173-57c86-203 278-265 451-265 150 0 419 46 419 395V0H815v-152h-12C765-73 660 26 471 26zm31-159c199 0 310-134 310-271v-155c-30 35-226 55-295 64-131 17-246 59-246 186 0 116 97 176 231 176" id="B"/><path d="M158 0v-1118h175l1 205c55-151 181-225 313-225 147 0 245 90 285 228 53-141 190-228 352-228 194 0 352 125 352 384V0h-181v-749c0-161-105-225-225-225-151 0-243 103-243 244V0H807v-767c0-124-93-207-219-207-131 0-250 92-250 270V0H158" id="C"/><path d="M677 24c-213 0-288-135-325-197h-20V0H158v-1490h180v551h14c37-59 106-193 324-193 279 0 474 222 474 576 0 356-194 580-473 580zm-27-161c209 0 317-186 317-421 0-232-105-413-317-413-206 0-314 166-314 413 0 249 111 421 314 421" id="D"/><g id="f"><use transform="matrix(0.010850694444444444,0,0,0.010850694444444444,0,0)" xlink:href="#A"/><use transform="matrix(0.010850694444444444,0,0,0.010850694444444444,12.565104166666666,0)" xlink:href="#B"/><use transform="matrix(0.010850694444444444,0,0,0.010850694444444444,25.04340277777778,0)" xlink:href="#C"/><use transform="matrix(0.010850694444444444,0,0,0.010850694444444444,44.50954861111111,0)" xlink:href="#D"/><use transform="matrix(0.010850694444444444,0,0,0.010850694444444444,58.11631944444444,0)" xlink:href="#v"/><use transform="matrix(0.010850694444444444,0,0,0.010850694444444444,71.72309027777777,0)" xlink:href="#B"/></g><path d="M338-670V0H158v-1118h173l1 207c72-158 192-221 342-221 226 0 378 139 378 422V0H872v-695c0-172-96-275-252-275-161 0-282 109-282 300" id="E"/><path d="M613 24c-304 0-509-231-509-576 0-350 205-580 509-580 216 0 392 114 453 309l-173 49c-33-115-133-197-280-197-223 0-326 196-326 419 0 220 103 415 326 415 150 0 252-85 285-206l172 49C1010-95 832 24 613 24" id="F"/><path d="M598-1118v154H368v674c0 100 37 144 132 144 23 0 62-6 92-12L629-6c-37 13-88 20-134 20-193 0-307-107-307-290v-688H20v-154h168v-266h180v266h230" id="G"/><g id="g"><use transform="matrix(0.010850694444444444,0,0,0.010850694444444444,0,0)" xlink:href="#w"/><use transform="matrix(0.010850694444444444,0,0,0.010850694444444444,12.369791666666666,0)" xlink:href="#u"/><use transform="matrix(0.010850694444444444,0,0,0.010850694444444444,25.50998263888889,0)" xlink:href="#E"/><use transform="matrix(0.010850694444444444,0,0,0.010850694444444444,38.639322916666664,0)" xlink:href="#F"/><use transform="matrix(0.010850694444444444,0,0,0.010850694444444444,51.334635416666664,0)" xlink:href="#G"/><use transform="matrix(0.010850694444444444,0,0,0.010850694444444444,58.60460069444444,0)" xlink:href="#x"/><use transform="matrix(0.010850694444444444,0,0,0.010850694444444444,63.986545138888886,0)" xlink:href="#t"/><use transform="matrix(0.010850694444444444,0,0,0.010850694444444444,77.31119791666666,0)" xlink:href="#E"/></g><linearGradient gradientUnits="userSpaceOnUse" id="h" x1="-381.13" y1="162.42" x2="-381.13" y2="62.42"><stop offset="0%" stop-color="#0078d4"/><stop offset="81.7%" stop-color="#5ea0ef"/></linearGradient><path d="M158 0v-1118h174v172h12c41-113 157-188 290-188 26 0 70 2 91 3v181c-11-2-60-10-108-10-161 0-279 109-279 260V0H158" id="H"/><path d="M798-719v166H144v-166h654" id="I"/><path d="M678-1118v154H420V0H240v-964H20v-154h220v-149c0-194 155-293 318-293 85 0 141 18 168 30l-50 154c-19-6-47-17-97-17-111 0-159 58-159 166v109h258" id="J"/><g id="i"><use transform="matrix(0.008173828125000001,0,0,0.008173828125000001,0,0)" xlink:href="#H"/><use transform="matrix(0.008173828125000001,0,0,0.008173828125000001,6.0241113281250005,0)" xlink:href="#y"/><use transform="matrix(0.008173828125000001,0,0,0.008173828125000001,15.783662109375001,0)" xlink:href="#E"/><use transform="matrix(0.008173828125000001,0,0,0.008173828125000001,25.673994140625002,0)" xlink:href="#B"/><use transform="matrix(0.008173828125000001,0,0,0.008173828125000001,35.073896484375005,0)" xlink:href="#C"/><use transform="matrix(0.008173828125000001,0,0,0.008173828125000001,49.73774414062501,0)" xlink:href="#y"/><use transform="matrix(0.008173828125000001,0,0,0.008173828125000001,59.49729492187501,0)" xlink:href="#I"/><use transform="matrix(0.008173828125000001,0,0,0.008173828125000001,67.19704101562502,0)" xlink:href="#J"/><use transform="matrix(0.008173828125000001,0,0,0.008173828125000001,73.39280273437502,0)" xlink:href="#x"/><use transform="matrix(0.008173828125000001,0,0,0.008173828125000001,77.44702148437503,0)" xlink:href="#s"/><use transform="matrix(0.008173828125000001,0,0,0.008173828125000001,81.50124023437503,0)" xlink:href="#y"/></g><path d="M538 24C308 24 148-78 108-271l171-41c32 123 123 178 257 178 156 0 256-77 256-169 0-77-54-128-164-154l-186-44c-203-48-300-148-300-305 0-192 176-326 414-326 230 0 351 112 402 269l-163 42c-31-80-94-158-238-158-133 0-233 69-233 162 0 83 57 129 188 160l169 40c203 48 298 149 298 302 0 196-179 339-441 339" id="K"/><path d="M180 0v-1490h510c348 0 508 194 508 460 0 198-88 351-276 417L1256 0h-220L726-579c-117 2-238 0-356 1V0H180zm190-747h312c235 0 327-108 327-283 0-177-92-293-329-293H370v576" id="L"/><g id="j"><use transform="matrix(0.010850694444444444,0,0,0.010850694444444444,0,0)" xlink:href="#o"/><use transform="matrix(0.010850694444444444,0,0,0.010850694444444444,15.33203125,0)" xlink:href="#K"/><use transform="matrix(0.010850694444444444,0,0,0.010850694444444444,27.061631944444443,0)" xlink:href="#K"/><use transform="matrix(0.010850694444444444,0,0,0.010850694444444444,38.791232638888886,0)" xlink:href="#u"/><use transform="matrix(0.010850694444444444,0,0,0.010850694444444444,51.93142361111111,0)" xlink:href="#C"/><use transform="matrix(0.010850694444444444,0,0,0.010850694444444444,71.39756944444444,0)" xlink:href="#y"/><use transform="matrix(0.010850694444444444,0,0,0.010850694444444444,84.35329861111111,0)" xlink:href="#L"/><use transform="matrix(0.010850694444444444,0,0,0.010850694444444444,98.32899305555556,0)" xlink:href="#t"/><use transform="matrix(0.010850694444444444,0,0,0.010850694444444444,111.65364583333333,0)" xlink:href="#s"/><use transform="matrix(0.010850694444444444,0,0,0.010850694444444444,117.03559027777777,0)" xlink:href="#y"/></g><path d="M370-1490V0H180v-1490h190" id="M"/><path d="M180 0v-1490h270l367 940c28 72 75 218 110 339 35-117 81-264 110-339l362-940h271V0h-187c2-448-5-837 7-1287-157 497-311 829-483 1287H842C666-458 514-784 354-1284c12 438 5 843 7 1284H180" id="N"/><g id="k"><use transform="matrix(0.010850694444444444,0,0,0.010850694444444444,0,0)" xlink:href="#M"/><use transform="matrix(0.010850694444444444,0,0,0.010850694444444444,5.967881944444445,0)" xlink:href="#o"/><use transform="matrix(0.010850694444444444,0,0,0.010850694444444444,21.299913194444443,0)" xlink:href="#N"/></g><path d="M180 0v-1490h510c348 0 508 209 508 474 0 266-160 477-507 477H370V0H180zm190-706h312c236 0 327-133 327-310 0-176-91-307-329-307H370v617" id="O"/><path d="M140 405l46-156c120 36 205 19 263-150l32-93L54-1118h197c107 313 237 620 324 950 87-331 219-637 326-950h196L606 167c-68 178-176 259-334 259-64 0-113-12-132-21" id="P"/><g id="l"><use transform="matrix(0.010850694444444444,0,0,0.010850694444444444,0,0)" xlink:href="#O"/><use transform="matrix(0.010850694444444444,0,0,0.010850694444444444,14.073350694444445,0)" xlink:href="#t"/><use transform="matrix(0.010850694444444444,0,0,0.010850694444444444,27.39800347222222,0)" xlink:href="#s"/><use transform="matrix(0.010850694444444444,0,0,0.010850694444444444,32.779947916666664,0)" xlink:href="#x"/><use transform="matrix(0.010850694444444444,0,0,0.010850694444444444,38.16189236111111,0)" xlink:href="#F"/><use transform="matrix(0.010850694444444444,0,0,0.010850694444444444,50.42317708333333,0)" xlink:href="#P"/></g><path d="M338-670V0H158v-1490h180v566c73-149 190-208 336-208 226 0 379 139 379 422V0H872v-695c0-172-96-275-252-275-161 0-282 109-282 300" id="Q"/><g id="m"><use transform="matrix(0.010850694444444444,0,0,0.010850694444444444,0,0)" xlink:href="#r"/><use transform="matrix(0.010850694444444444,0,0,0.010850694444444444,16.23263888888889,0)" xlink:href="#s"/><use transform="matrix(0.010850694444444444,0,0,0.010850694444444444,21.614583333333336,0)" xlink:href="#t"/><use transform="matrix(0.010850694444444444,0,0,0.010850694444444444,34.939236111111114,0)" xlink:href="#u"/><use transform="matrix(0.010850694444444444,0,0,0.010850694444444444,48.07942708333333,0)" xlink:href="#v"/><use transform="matrix(0.010850694444444444,0,0,0.010850694444444444,61.68619791666667,0)" xlink:href="#p"/><use transform="matrix(0.010850694444444444,0,0,0.010850694444444444,82.45442708333334,0)" xlink:href="#B"/><use transform="matrix(0.010850694444444444,0,0,0.010850694444444444,94.93272569444446,0)" xlink:href="#G"/><use transform="matrix(0.010850694444444444,0,0,0.010850694444444444,101.98567708333334,0)" xlink:href="#F"/><use transform="matrix(0.010850694444444444,0,0,0.010850694444444444,114.68098958333334,0)" xlink:href="#Q"/></g><path d="M611 442c-248 0-391-105-460-228l146-94c47 65 117 165 314 165 178 0 307-82 307-266v-224h-17C863-141 792-18 576-18c-268 0-472-195-472-546 0-346 197-568 476-568 216 0 288 133 326 193h17v-179h175V29c0 289-215 413-487 413zm-5-620c203 0 314-146 314-390 0-237-108-403-314-403-213 0-319 180-319 403 0 230 109 390 319 390" id="R"/><g id="n"><use transform="matrix(0.010850694444444444,0,0,0.010850694444444444,0,0)" xlink:href="#A"/><use transform="matrix(0.010850694444444444,0,0,0.010850694444444444,12.565104166666666,0)" xlink:href="#t"/><use transform="matrix(0.010850694444444444,0,0,0.010850694444444444,25.889756944444443,0)" xlink:href="#R"/><use transform="matrix(0.010850694444444444,0,0,0.010850694444444444,39.518229166666664,0)" xlink:href="#K"/></g></defs></g></svg>